<svg xmlns="http://www.w3.org/2000/svg" width="520" height="499" viewBox="0 0 520 499" font-family="-apple-system,BlinkMacSystemFont,'Segoe UI',Helvetica,Arial,sans-serif">
<title>Clovis500c — Claude Code usage</title>
<rect width="520" height="499" rx="12" fill="#faf9f5"/>
<rect x="16" y="16" width="32" height="32" rx="8" fill="#cc4589"/>
<text x="32" y="37" text-anchor="middle" font-size="14" font-weight="700" font-family="Consolas,Menlo,monospace" fill="#ffffff">&gt;_</text>
<text x="60" y="30" font-size="16" font-weight="600" fill="#141413">Claude Code usage</text>
<text x="60" y="46" font-size="11.5" fill="#7a776f">@Clovis500c · All time · updated Sep 22, 2026</text>
<rect x="16" y="64" width="117.5" height="46" rx="6" fill="#f0eee6"/>
<text x="25" y="82" font-size="11" fill="#7a776f">Sessions</text>
<text x="25" y="101" font-size="15" font-weight="600" fill="#1f1e1d">65</text>
<rect x="139.5" y="64" width="117.5" height="46" rx="6" fill="#f0eee6"/>
<text x="148.5" y="82" font-size="11" fill="#7a776f">Prompts</text>
<text x="148.5" y="101" font-size="15" font-weight="600" fill="#1f1e1d">657</text>
<rect x="263" y="64" width="117.5" height="46" rx="6" fill="#f0eee6"/>
<text x="272" y="82" font-size="11" fill="#7a776f">Active days</text>
<text x="272" y="101" font-size="15" font-weight="600" fill="#1f1e1d">29</text>
<rect x="386.5" y="64" width="117.5" height="46" rx="6" fill="#f0eee6"/>
<text x="395.5" y="82" font-size="11" fill="#7a776f">Longest streak</text>
<text x="395.5" y="101" font-size="15" font-weight="600" fill="#1f1e1d">8 days</text>
<rect x="16" y="116" width="117.5" height="46" rx="6" fill="#f0eee6"/>
<text x="25" y="134" font-size="11" fill="#7a776f">Tokens generated</text>
<text x="25" y="153" font-size="15" font-weight="600" fill="#1f1e1d">7.7M</text>
<rect x="139.5" y="116" width="117.5" height="46" rx="6" fill="#f0eee6"/>
<text x="148.5" y="134" font-size="11" fill="#7a776f">Tool calls</text>
<text x="148.5" y="153" font-size="15" font-weight="600" fill="#1f1e1d">7,742</text>
<rect x="263" y="116" width="117.5" height="46" rx="6" fill="#f0eee6"/>
<text x="272" y="134" font-size="11" fill="#7a776f">Peak hour</text>
<text x="272" y="153" font-size="15" font-weight="600" fill="#1f1e1d">5 PM</text>
<rect x="386.5" y="116" width="117.5" height="46" rx="6" fill="#f0eee6"/>
<text x="395.5" y="134" font-size="11" fill="#7a776f">Favorite model</text>
<text x="395.5" y="153" font-size="15" font-weight="600" fill="#1f1e1d">Opus 5</text>
<text x="34.9" y="184" font-size="10.5" fill="#7a776f">Apr</text>
<text x="110.4" y="184" font-size="10.5" fill="#7a776f">May</text>
<text x="204.8" y="184" font-size="10.5" fill="#7a776f">Jun</text>
<text x="280.4" y="184" font-size="10.5" fill="#7a776f">Jul</text>
<text x="355.9" y="184" font-size="10.5" fill="#7a776f">Aug</text>
<text x="450.3" y="184" font-size="10.5" fill="#7a776f">Sep</text>
<rect x="16" y="190" width="15.9" height="15.9" rx="3" fill="#e6e4da"/>
<rect x="16" y="208.9" width="15.9" height="15.9" rx="3" fill="#e6e4da"/>
<rect x="16" y="227.8" width="15.9" height="15.9" rx="3" fill="#e6e4da"/>
<rect x="16" y="246.7" width="15.9" height="15.9" rx="3" fill="#e6e4da"/>
<rect x="16" y="265.5" width="15.9" height="15.9" rx="3" fill="#e6e4da"/>
<rect x="16" y="284.4" width="15.9" height="15.9" rx="3" fill="#e6e4da"/>
<rect x="16" y="303.3" width="15.9" height="15.9" rx="3" fill="#e6e4da"/>
<rect x="34.9" y="190" width="15.9" height="15.9" rx="3" fill="#e6e4da"/>
<rect x="34.9" y="208.9" width="15.9" height="15.9" rx="3" fill="#e6e4da"/>
<rect x="34.9" y="227.8" width="15.9" height="15.9" rx="3" fill="#e6e4da"/>
<rect x="34.9" y="246.7" width="15.9" height="15.9" rx="3" fill="#e6e4da"/>
<rect x="34.9" y="265.5" width="15.9" height="15.9" rx="3" fill="#e6e4da"/>
<rect x="34.9" y="284.4" width="15.9" height="15.9" rx="3" fill="#e6e4da"/>
<rect x="34.9" y="303.3" width="15.9" height="15.9" rx="3" fill="#e6e4da"/>
<rect x="53.8" y="190" width="15.9" height="15.9" rx="3" fill="#e6e4da"/>
<rect x="53.8" y="208.9" width="15.9" height="15.9" rx="3" fill="#e6e4da"/>
<rect x="53.8" y="227.8" width="15.9" height="15.9" rx="3" fill="#e6e4da"/>
<rect x="53.8" y="246.7" width="15.9" height="15.9" rx="3" fill="#e6e4da"/>
<rect x="53.8" y="265.5" width="15.9" height="15.9" rx="3" fill="#e6e4da"/>
<rect x="53.8" y="284.4" width="15.9" height="15.9" rx="3" fill="#e6e4da"/>
<rect x="53.8" y="303.3" width="15.9" height="15.9" rx="3" fill="#e6e4da"/>
<rect x="72.7" y="190" width="15.9" height="15.9" rx="3" fill="#e6e4da"/>
<rect x="72.7" y="208.9" width="15.9" height="15.9" rx="3" fill="#e6e4da"/>
<rect x="72.7" y="227.8" width="15.9" height="15.9" rx="3" fill="#e6e4da"/>
<rect x="72.7" y="246.7" width="15.9" height="15.9" rx="3" fill="#e6e4da"/>
<rect x="72.7" y="265.5" width="15.9" height="15.9" rx="3" fill="#e6e4da"/>
<rect x="72.7" y="284.4" width="15.9" height="15.9" rx="3" fill="#e6e4da"/>
<rect x="72.7" y="303.3" width="15.9" height="15.9" rx="3" fill="#e6e4da"/>
<rect x="91.5" y="190" width="15.9" height="15.9" rx="3" fill="#e6e4da"/>
<rect x="91.5" y="208.9" width="15.9" height="15.9" rx="3" fill="#e6e4da"/>
<rect x="91.5" y="227.8" width="15.9" height="15.9" rx="3" fill="#e6e4da"/>
<rect x="91.5" y="246.7" width="15.9" height="15.9" rx="3" fill="#e6e4da"/>
<rect x="91.5" y="265.5" width="15.9" height="15.9" rx="3" fill="#e6e4da"/>
<rect x="91.5" y="284.4" width="15.9" height="15.9" rx="3" fill="#e6e4da"/>
<rect x="91.5" y="303.3" width="15.9" height="15.9" rx="3" fill="#e6e4da"/>
<rect x="110.4" y="190" width="15.9" height="15.9" rx="3" fill="#e6e4da"/>
<rect x="110.4" y="208.9" width="15.9" height="15.9" rx="3" fill="#e6e4da"/>
<rect x="110.4" y="227.8" width="15.9" height="15.9" rx="3" fill="#e6e4da"/>
<rect x="110.4" y="246.7" width="15.9" height="15.9" rx="3" fill="#e6e4da"/>
<rect x="110.4" y="265.5" width="15.9" height="15.9" rx="3" fill="#e6e4da"/>
<rect x="110.4" y="284.4" width="15.9" height="15.9" rx="3" fill="#e6e4da"/>
<rect x="110.4" y="303.3" width="15.9" height="15.9" rx="3" fill="#e6e4da"/>
<rect x="129.3" y="190" width="15.9" height="15.9" rx="3" fill="#e6e4da"/>
<rect x="129.3" y="208.9" width="15.9" height="15.9" rx="3" fill="#e6e4da"/>
<rect x="129.3" y="227.8" width="15.9" height="15.9" rx="3" fill="#e6e4da"/>
<rect x="129.3" y="246.7" width="15.9" height="15.9" rx="3" fill="#e6e4da"/>
<rect x="129.3" y="265.5" width="15.9" height="15.9" rx="3" fill="#e6e4da"/>
<rect x="129.3" y="284.4" width="15.9" height="15.9" rx="3" fill="#e6e4da"/>
<rect x="129.3" y="303.3" width="15.9" height="15.9" rx="3" fill="#e6e4da"/>
<rect x="148.2" y="190" width="15.9" height="15.9" rx="3" fill="#e6e4da"/>
<rect x="148.2" y="208.9" width="15.9" height="15.9" rx="3" fill="#e6e4da"/>
<rect x="148.2" y="227.8" width="15.9" height="15.9" rx="3" fill="#e6e4da"/>
<rect x="148.2" y="246.7" width="15.9" height="15.9" rx="3" fill="#e6e4da"/>
<rect x="148.2" y="265.5" width="15.9" height="15.9" rx="3" fill="#e6e4da"/>
<rect x="148.2" y="284.4" width="15.9" height="15.9" rx="3" fill="#e6e4da"/>
<rect x="148.2" y="303.3" width="15.9" height="15.9" rx="3" fill="#e6e4da"/>
<rect x="167.1" y="190" width="15.9" height="15.9" rx="3" fill="#e6e4da"/>
<rect x="167.1" y="208.9" width="15.9" height="15.9" rx="3" fill="#e6e4da"/>
<rect x="167.1" y="227.8" width="15.9" height="15.9" rx="3" fill="#e6e4da"/>
<rect x="167.1" y="246.7" width="15.9" height="15.9" rx="3" fill="#e6e4da"/>
<rect x="167.1" y="265.5" width="15.9" height="15.9" rx="3" fill="#e6e4da"/>
<rect x="167.1" y="284.4" width="15.9" height="15.9" rx="3" fill="#e6e4da"/>
<rect x="167.1" y="303.3" width="15.9" height="15.9" rx="3" fill="#e6e4da"/>
<rect x="186" y="190" width="15.9" height="15.9" rx="3" fill="#e6e4da"/>
<rect x="186" y="208.9" width="15.9" height="15.9" rx="3" fill="#e6e4da"/>
<rect x="186" y="227.8" width="15.9" height="15.9" rx="3" fill="#e6e4da"/>
<rect x="186" y="246.7" width="15.9" height="15.9" rx="3" fill="#e6e4da"/>
<rect x="186" y="265.5" width="15.9" height="15.9" rx="3" fill="#e6e4da"/>
<rect x="186" y="284.4" width="15.9" height="15.9" rx="3" fill="#e6e4da"/>
<rect x="186" y="303.3" width="15.9" height="15.9" rx="3" fill="#e6e4da"/>
<rect x="204.8" y="190" width="15.9" height="15.9" rx="3" fill="#e6e4da"/>
<rect x="204.8" y="208.9" width="15.9" height="15.9" rx="3" fill="#e6e4da"/>
<rect x="204.8" y="227.8" width="15.9" height="15.9" rx="3" fill="#e6e4da"/>
<rect x="204.8" y="246.7" width="15.9" height="15.9" rx="3" fill="#e6e4da"/>
<rect x="204.8" y="265.5" width="15.9" height="15.9" rx="3" fill="#e6e4da"/>
<rect x="204.8" y="284.4" width="15.9" height="15.9" rx="3" fill="#e6e4da"/>
<rect x="204.8" y="303.3" width="15.9" height="15.9" rx="3" fill="#e6e4da"/>
<rect x="223.7" y="190" width="15.9" height="15.9" rx="3" fill="#e6e4da"/>
<rect x="223.7" y="208.9" width="15.9" height="15.9" rx="3" fill="#e6e4da"/>
<rect x="223.7" y="227.8" width="15.9" height="15.9" rx="3" fill="#e6e4da"/>
<rect x="223.7" y="246.7" width="15.9" height="15.9" rx="3" fill="#e6e4da"/>
<rect x="223.7" y="265.5" width="15.9" height="15.9" rx="3" fill="#e6e4da"/>
<rect x="223.7" y="284.4" width="15.9" height="15.9" rx="3" fill="#e6e4da"/>
<rect x="223.7" y="303.3" width="15.9" height="15.9" rx="3" fill="#e6e4da"/>
<rect x="242.6" y="190" width="15.9" height="15.9" rx="3" fill="#e6e4da"/>
<rect x="242.6" y="208.9" width="15.9" height="15.9" rx="3" fill="#e6e4da"/>
<rect x="242.6" y="227.8" width="15.9" height="15.9" rx="3" fill="#e6e4da"/>
<rect x="242.6" y="246.7" width="15.9" height="15.9" rx="3" fill="#e6e4da"/>
<rect x="242.6" y="265.5" width="15.9" height="15.9" rx="3" fill="#e6e4da"/>
<rect x="242.6" y="284.4" width="15.9" height="15.9" rx="3" fill="#e6e4da"/>
<rect x="242.6" y="303.3" width="15.9" height="15.9" rx="3" fill="#e6e4da"/>
<rect x="261.5" y="190" width="15.9" height="15.9" rx="3" fill="#f9d3e5"/>
<rect x="261.5" y="208.9" width="15.9" height="15.9" rx="3" fill="#f2a9cb"/>
<rect x="261.5" y="227.8" width="15.9" height="15.9" rx="3" fill="#f9d3e5"/>
<rect x="261.5" y="246.7" width="15.9" height="15.9" rx="3" fill="#f9d3e5"/>
<rect x="261.5" y="265.5" width="15.9" height="15.9" rx="3" fill="#f9d3e5"/>
<rect x="261.5" y="284.4" width="15.9" height="15.9" rx="3" fill="#f9d3e5"/>
<rect x="261.5" y="303.3" width="15.9" height="15.9" rx="3" fill="#e6e4da"/>
<rect x="280.4" y="190" width="15.9" height="15.9" rx="3" fill="#e6e4da"/>
<rect x="280.4" y="208.9" width="15.9" height="15.9" rx="3" fill="#e6e4da"/>
<rect x="280.4" y="227.8" width="15.9" height="15.9" rx="3" fill="#e6e4da"/>
<rect x="280.4" y="246.7" width="15.9" height="15.9" rx="3" fill="#e6e4da"/>
<rect x="280.4" y="265.5" width="15.9" height="15.9" rx="3" fill="#e6e4da"/>
<rect x="280.4" y="284.4" width="15.9" height="15.9" rx="3" fill="#e6e4da"/>
<rect x="280.4" y="303.3" width="15.9" height="15.9" rx="3" fill="#e6e4da"/>
<rect x="299.3" y="190" width="15.9" height="15.9" rx="3" fill="#e6e4da"/>
<rect x="299.3" y="208.9" width="15.9" height="15.9" rx="3" fill="#e6e4da"/>
<rect x="299.3" y="227.8" width="15.9" height="15.9" rx="3" fill="#e6e4da"/>
<rect x="299.3" y="246.7" width="15.9" height="15.9" rx="3" fill="#e6e4da"/>
<rect x="299.3" y="265.5" width="15.9" height="15.9" rx="3" fill="#e6e4da"/>
<rect x="299.3" y="284.4" width="15.9" height="15.9" rx="3" fill="#e6e4da"/>
<rect x="299.3" y="303.3" width="15.9" height="15.9" rx="3" fill="#e6e4da"/>
<rect x="318.2" y="190" width="15.9" height="15.9" rx="3" fill="#f9d3e5"/>
<rect x="318.2" y="208.9" width="15.9" height="15.9" rx="3" fill="#e6e4da"/>
<rect x="318.2" y="227.8" width="15.9" height="15.9" rx="3" fill="#e6e4da"/>
<rect x="318.2" y="246.7" width="15.9" height="15.9" rx="3" fill="#e6e4da"/>
<rect x="318.2" y="265.5" width="15.9" height="15.9" rx="3" fill="#e6e4da"/>
<rect x="318.2" y="284.4" width="15.9" height="15.9" rx="3" fill="#e6e4da"/>
<rect x="318.2" y="303.3" width="15.9" height="15.9" rx="3" fill="#e6e4da"/>
<rect x="337" y="190" width="15.9" height="15.9" rx="3" fill="#e6e4da"/>
<rect x="337" y="208.9" width="15.9" height="15.9" rx="3" fill="#e6e4da"/>
<rect x="337" y="227.8" width="15.9" height="15.9" rx="3" fill="#e6e4da"/>
<rect x="337" y="246.7" width="15.9" height="15.9" rx="3" fill="#e6e4da"/>
<rect x="337" y="265.5" width="15.9" height="15.9" rx="3" fill="#e6e4da"/>
<rect x="337" y="284.4" width="15.9" height="15.9" rx="3" fill="#e6e4da"/>
<rect x="337" y="303.3" width="15.9" height="15.9" rx="3" fill="#e6e4da"/>
<rect x="355.9" y="190" width="15.9" height="15.9" rx="3" fill="#e6e4da"/>
<rect x="355.9" y="208.9" width="15.9" height="15.9" rx="3" fill="#e6e4da"/>
<rect x="355.9" y="227.8" width="15.9" height="15.9" rx="3" fill="#e6e4da"/>
<rect x="355.9" y="246.7" width="15.9" height="15.9" rx="3" fill="#e6e4da"/>
<rect x="355.9" y="265.5" width="15.9" height="15.9" rx="3" fill="#e6e4da"/>
<rect x="355.9" y="284.4" width="15.9" height="15.9" rx="3" fill="#e6e4da"/>
<rect x="355.9" y="303.3" width="15.9" height="15.9" rx="3" fill="#e6e4da"/>
<rect x="374.8" y="190" width="15.9" height="15.9" rx="3" fill="#e6e4da"/>
<rect x="374.8" y="208.9" width="15.9" height="15.9" rx="3" fill="#e6e4da"/>
<rect x="374.8" y="227.8" width="15.9" height="15.9" rx="3" fill="#e6e4da"/>
<rect x="374.8" y="246.7" width="15.9" height="15.9" rx="3" fill="#e6e4da"/>
<rect x="374.8" y="265.5" width="15.9" height="15.9" rx="3" fill="#e6e4da"/>
<rect x="374.8" y="284.4" width="15.9" height="15.9" rx="3" fill="#e6e4da"/>
<rect x="374.8" y="303.3" width="15.9" height="15.9" rx="3" fill="#f2a9cb"/>
<rect x="393.7" y="190" width="15.9" height="15.9" rx="3" fill="#e6e4da"/>
<rect x="393.7" y="208.9" width="15.9" height="15.9" rx="3" fill="#e6e4da"/>
<rect x="393.7" y="227.8" width="15.9" height="15.9" rx="3" fill="#f2a9cb"/>
<rect x="393.7" y="246.7" width="15.9" height="15.9" rx="3" fill="#f9d3e5"/>
<rect x="393.7" y="265.5" width="15.9" height="15.9" rx="3" fill="#e6e4da"/>
<rect x="393.7" y="284.4" width="15.9" height="15.9" rx="3" fill="#f9d3e5"/>
<rect x="393.7" y="303.3" width="15.9" height="15.9" rx="3" fill="#e67daf"/>
<rect x="412.6" y="190" width="15.9" height="15.9" rx="3" fill="#cc4589"/>
<rect x="412.6" y="208.9" width="15.9" height="15.9" rx="3" fill="#f2a9cb"/>
<rect x="412.6" y="227.8" width="15.9" height="15.9" rx="3" fill="#f9d3e5"/>
<rect x="412.6" y="246.7" width="15.9" height="15.9" rx="3" fill="#f9d3e5"/>
<rect x="412.6" y="265.5" width="15.9" height="15.9" rx="3" fill="#f9d3e5"/>
<rect x="412.6" y="284.4" width="15.9" height="15.9" rx="3" fill="#f2a9cb"/>
<rect x="412.6" y="303.3" width="15.9" height="15.9" rx="3" fill="#e6e4da"/>
<rect x="431.5" y="190" width="15.9" height="15.9" rx="3" fill="#e6e4da"/>
<rect x="431.5" y="208.9" width="15.9" height="15.9" rx="3" fill="#e6e4da"/>
<rect x="431.5" y="227.8" width="15.9" height="15.9" rx="3" fill="#e6e4da"/>
<rect x="431.5" y="246.7" width="15.9" height="15.9" rx="3" fill="#e6e4da"/>
<rect x="431.5" y="265.5" width="15.9" height="15.9" rx="3" fill="#e6e4da"/>
<rect x="431.5" y="284.4" width="15.9" height="15.9" rx="3" fill="#f9d3e5"/>
<rect x="431.5" y="303.3" width="15.9" height="15.9" rx="3" fill="#f2a9cb"/>
<rect x="450.3" y="190" width="15.9" height="15.9" rx="3" fill="#e67daf"/>
<rect x="450.3" y="208.9" width="15.9" height="15.9" rx="3" fill="#f9d3e5"/>
<rect x="450.3" y="227.8" width="15.9" height="15.9" rx="3" fill="#f9d3e5"/>
<rect x="450.3" y="246.7" width="15.9" height="15.9" rx="3" fill="#f9d3e5"/>
<rect x="450.3" y="265.5" width="15.9" height="15.9" rx="3" fill="#e6e4da"/>
<rect x="450.3" y="284.4" width="15.9" height="15.9" rx="3" fill="#e6e4da"/>
<rect x="450.3" y="303.3" width="15.9" height="15.9" rx="3" fill="#e6e4da"/>
<rect x="469.2" y="190" width="15.9" height="15.9" rx="3" fill="#e6e4da"/>
<rect x="469.2" y="208.9" width="15.9" height="15.9" rx="3" fill="#e6e4da"/>
<rect x="469.2" y="227.8" width="15.9" height="15.9" rx="3" fill="#e6e4da"/>
<rect x="469.2" y="246.7" width="15.9" height="15.9" rx="3" fill="#e6e4da"/>
<rect x="469.2" y="265.5" width="15.9" height="15.9" rx="3" fill="#e6e4da"/>
<rect x="469.2" y="284.4" width="15.9" height="15.9" rx="3" fill="#f9d3e5"/>
<rect x="469.2" y="303.3" width="15.9" height="15.9" rx="3" fill="#f2a9cb"/>
<rect x="488.1" y="190" width="15.9" height="15.9" rx="3" fill="#f2a9cb"/>
<rect x="488.1" y="208.9" width="15.9" height="15.9" rx="3" fill="#f9d3e5"/>
<rect x="488.1" y="227.8" width="15.9" height="15.9" rx="3" fill="#f9d3e5"/>
<text x="16" y="336.2" font-size="11" fill="#7a776f">Claude wrote ≈ 12× the length of The Lord of the Rings</text>
<text x="504" y="336.2" font-size="11" text-anchor="end" fill="#7a776f">More</text>
<rect x="466.1" y="327.2" width="10" height="10" rx="2" fill="#cc4589"/>
<rect x="453.1" y="327.2" width="10" height="10" rx="2" fill="#e67daf"/>
<rect x="440.1" y="327.2" width="10" height="10" rx="2" fill="#f2a9cb"/>
<rect x="427.1" y="327.2" width="10" height="10" rx="2" fill="#f9d3e5"/>
<rect x="414.1" y="327.2" width="10" height="10" rx="2" fill="#e6e4da"/>
<text x="408.1" y="336.2" font-size="11" text-anchor="end" fill="#7a776f">Less</text>
<rect x="16" y="353.2" width="488" height="1" fill="#e3e0d6"/>
<text x="16" y="373.2" font-size="12" font-weight="600" fill="#1f1e1d">Tokens</text>
<text x="504" y="373.2" font-size="11" text-anchor="end" fill="#7a776f">3.3B processed in total</text>
<clipPath id="bar385.1923076923077"><rect x="16" y="385.1923076923077" width="488" height="8" rx="4"/></clipPath><g clip-path="url(#bar385.1923076923077)">
<rect x="16" y="385.2" width="3" height="8" fill="#cc4589"/>
<rect x="19" y="385.2" width="9.2" height="8" fill="#5289ea"/>
<rect x="28.2" y="385.2" width="475.8" height="8" fill="#cfccc1"/>
</g>
<circle cx="20" cy="405.1923076923077" r="4" fill="#cc4589"/>
<text x="28" y="409.1923076923077" font-size="11" fill="#7a776f">Written by Claude <tspan font-weight="600" fill="#1f1e1d">7.7M</tspan></text>
<circle cx="182.7" cy="405.1923076923077" r="4" fill="#5289ea"/>
<text x="190.7" y="409.1923076923077" font-size="11" fill="#7a776f">Added to context <tspan font-weight="600" fill="#1f1e1d">62.5M</tspan></text>
<circle cx="345.3" cy="405.1923076923077" r="4" fill="#cfccc1"/>
<text x="353.3" y="409.1923076923077" font-size="11" fill="#7a776f">Re-read from cache <tspan font-weight="600" fill="#1f1e1d">3.2B</tspan></text>
<rect x="16" y="425.2" width="488" height="1" fill="#e3e0d6"/>
<text x="16" y="445.2" font-size="12" font-weight="600" fill="#1f1e1d">Models</text>
<text x="504" y="445.2" font-size="11" text-anchor="end" fill="#7a776f">share of generated tokens</text>
<clipPath id="bar457.1923076923077"><rect x="16" y="457.1923076923077" width="488" height="8" rx="4"/></clipPath><g clip-path="url(#bar457.1923076923077)">
<rect x="16" y="457.2" width="365.5" height="8" fill="#cc4589"/>
<rect x="381.5" y="457.2" width="109.2" height="8" fill="#5289ea"/>
<rect x="490.7" y="457.2" width="10.3" height="8" fill="#9d9a90"/>
<rect x="501" y="457.2" width="3" height="8" fill="#cfccc1"/>
</g>
<circle cx="20" cy="477.1923076923077" r="4" fill="#cc4589"/>
<text x="28" y="481.1923076923077" font-size="11" fill="#7a776f">Opus 5 <tspan font-weight="600" fill="#1f1e1d">75%</tspan></text>
<circle cx="142" cy="477.1923076923077" r="4" fill="#5289ea"/>
<text x="150" y="481.1923076923077" font-size="11" fill="#7a776f">Opus 4.8 <tspan font-weight="600" fill="#1f1e1d">23%</tspan></text>
<circle cx="264" cy="477.1923076923077" r="4" fill="#9d9a90"/>
<text x="272" y="481.1923076923077" font-size="11" fill="#7a776f">Opus 5.5 <tspan font-weight="600" fill="#1f1e1d">2.1%</tspan></text>
<circle cx="386" cy="477.1923076923077" r="4" fill="#cfccc1"/>
<text x="394" y="481.1923076923077" font-size="11" fill="#7a776f">Other <tspan font-weight="600" fill="#1f1e1d">&#60;0.1%</tspan></text>
</svg>
