<svg xmlns="http://www.w3.org/2000/svg" width="520" height="290" viewBox="0 0 520 290" font-family="-apple-system,BlinkMacSystemFont,'Segoe UI',Helvetica,Arial,sans-serif">
<title>Clovis500c — Claude Code usage</title>
<rect width="520" height="290" rx="12" fill="#262624"/>
<rect x="16" y="16" width="32" height="32" rx="8" fill="#d97757"/>
<text x="32" y="37" text-anchor="middle" font-size="14" font-weight="700" font-family="Consolas,Menlo,monospace" fill="#ffffff">&gt;_</text>
<text x="60" y="30" font-size="16" font-weight="600" fill="#f5f4ef">Claude Code usage</text>
<text x="60" y="46" font-size="11.5" fill="#8e8d88">@Clovis500c · All time · updated Sep 22, 2026</text>
<rect x="16" y="64" width="117.5" height="46" rx="6" fill="#30302e"/>
<text x="25" y="82" font-size="11" fill="#8e8d88">Prompts</text>
<text x="25" y="101" font-size="15" font-weight="600" fill="#e8e6e0">657</text>
<rect x="139.5" y="64" width="117.5" height="46" rx="6" fill="#30302e"/>
<text x="148.5" y="82" font-size="11" fill="#8e8d88">Tokens generated</text>
<text x="148.5" y="101" font-size="15" font-weight="600" fill="#e8e6e0">7.7M</text>
<rect x="263" y="64" width="117.5" height="46" rx="6" fill="#30302e"/>
<text x="272" y="82" font-size="11" fill="#8e8d88">Longest streak</text>
<text x="272" y="101" font-size="15" font-weight="600" fill="#e8e6e0">8 days</text>
<rect x="386.5" y="64" width="117.5" height="46" rx="6" fill="#30302e"/>
<text x="395.5" y="82" font-size="11" fill="#8e8d88">Favorite model</text>
<text x="395.5" y="101" font-size="15" font-weight="600" fill="#e8e6e0">Opus 5</text>
<text x="16" y="127" font-size="11" fill="#8e8d88">Claude wrote ≈ 12× the length of The Lord of the Rings</text>
<rect x="16" y="144" width="488" height="1" fill="#3a3a37"/>
<text x="16" y="164" font-size="12" font-weight="600" fill="#e8e6e0">Tokens</text>
<text x="504" y="164" font-size="11" text-anchor="end" fill="#8e8d88">3.3B processed in total</text>
<clipPath id="bar176"><rect x="16" y="176" width="488" height="8" rx="4"/></clipPath><g clip-path="url(#bar176)">
<rect x="16" y="176" width="3" height="8" fill="#d97757"/>
<rect x="19" y="176" width="9.2" height="8" fill="#6f9ef0"/>
<rect x="28.2" y="176" width="475.8" height="8" fill="#57574f"/>
</g>
<circle cx="20" cy="196" r="4" fill="#d97757"/>
<text x="28" y="200" font-size="11" fill="#8e8d88">Written by Claude <tspan font-weight="600" fill="#e8e6e0">7.7M</tspan></text>
<circle cx="182.7" cy="196" r="4" fill="#6f9ef0"/>
<text x="190.7" y="200" font-size="11" fill="#8e8d88">Added to context <tspan font-weight="600" fill="#e8e6e0">62.5M</tspan></text>
<circle cx="345.3" cy="196" r="4" fill="#57574f"/>
<text x="353.3" y="200" font-size="11" fill="#8e8d88">Re-read from cache <tspan font-weight="600" fill="#e8e6e0">3.2B</tspan></text>
<rect x="16" y="216" width="488" height="1" fill="#3a3a37"/>
<text x="16" y="236" font-size="12" font-weight="600" fill="#e8e6e0">Models</text>
<text x="504" y="236" font-size="11" text-anchor="end" fill="#8e8d88">share of generated tokens</text>
<clipPath id="bar248"><rect x="16" y="248" width="488" height="8" rx="4"/></clipPath><g clip-path="url(#bar248)">
<rect x="16" y="248" width="365.5" height="8" fill="#d97757"/>
<rect x="381.5" y="248" width="109.2" height="8" fill="#6f9ef0"/>
<rect x="490.7" y="248" width="10.3" height="8" fill="#b7b4aa"/>
<rect x="501" y="248" width="3" height="8" fill="#6b6a64"/>
</g>
<circle cx="20" cy="268" r="4" fill="#d97757"/>
<text x="28" y="272" font-size="11" fill="#8e8d88">Opus 5 <tspan font-weight="600" fill="#e8e6e0">75%</tspan></text>
<circle cx="142" cy="268" r="4" fill="#6f9ef0"/>
<text x="150" y="272" font-size="11" fill="#8e8d88">Opus 4.8 <tspan font-weight="600" fill="#e8e6e0">23%</tspan></text>
<circle cx="264" cy="268" r="4" fill="#b7b4aa"/>
<text x="272" y="272" font-size="11" fill="#8e8d88">Opus 5.5 <tspan font-weight="600" fill="#e8e6e0">2.1%</tspan></text>
<circle cx="386" cy="268" r="4" fill="#6b6a64"/>
<text x="394" y="272" font-size="11" fill="#8e8d88">Other <tspan font-weight="600" fill="#e8e6e0">&#60;0.1%</tspan></text>
</svg>
